<svg id="svg" version="1.1" xmlns="http://www.w3.org/2000/svg" xmlns:xlink="http://www.w3.org/1999/xlink" width="400" height="400" viewBox="0, 0, 400,400"><g id="svgg"><path id="path0" d="M205.600 60.657 C 205.270 60.748,204.280 62.117,203.400 63.700 C 201.072 67.889,199.904 69.943,193.794 80.600 C 190.767 85.880,187.936 90.830,187.502 91.600 C 187.069 92.370,186.580 93.180,186.415 93.400 C 186.250 93.620,185.576 94.790,184.917 96.000 C 183.806 98.039,183.243 99.038,181.253 102.500 C 177.846 108.428,169.304 123.359,168.495 124.800 C 167.940 125.790,164.748 131.370,161.404 137.200 C 158.059 143.030,154.865 148.610,154.306 149.600 C 153.746 150.590,149.734 157.610,145.389 165.200 C 141.044 172.790,136.948 179.990,136.287 181.200 C 135.626 182.410,134.950 183.580,134.785 183.800 C 134.620 184.020,134.106 184.875,133.643 185.700 C 132.590 187.574,131.842 188.880,129.255 193.357 C 128.125 195.314,127.200 196.956,127.200 197.006 C 127.200 197.649,119.216 210.435,117.257 212.928 C 112.349 219.175,105.390 223.903,99.466 225.014 C 97.670 225.351,97.413 225.786,96.202 230.532 C 95.688 232.549,94.892 235.592,94.434 237.293 C 93.975 238.994,93.600 240.749,93.600 241.193 C 93.600 241.996,93.766 242.000,126.785 242.000 L 159.969 242.000 160.349 240.500 C 160.558 239.675,161.134 237.290,161.628 235.200 C 162.123 233.110,162.837 230.182,163.214 228.693 C 164.045 225.421,164.636 225.774,157.400 225.219 C 137.381 223.683,136.474 220.334,149.281 195.231 C 157.363 179.387,157.991 178.202,159.751 175.449 L 161.190 173.200 163.495 173.213 C 179.317 173.303,182.816 179.110,178.070 197.400 C 176.284 204.282,173.603 214.415,172.409 218.800 C 171.566 221.891,169.718 228.799,168.368 233.900 C 167.021 238.987,165.955 242.964,165.606 244.200 C 165.420 244.860,164.817 247.110,164.267 249.200 C 163.717 251.290,162.878 254.440,162.403 256.200 C 161.927 257.960,160.485 263.360,159.197 268.200 C 157.910 273.040,156.469 278.440,155.995 280.200 C 155.522 281.960,154.804 284.660,154.399 286.200 C 153.994 287.740,153.365 290.080,153.002 291.400 C 152.638 292.720,151.890 295.510,151.340 297.600 C 148.056 310.067,148.142 309.791,146.669 312.765 C 143.731 318.703,139.221 321.185,131.349 321.195 C 126.989 321.201,127.591 320.332,125.057 330.272 C 123.813 335.150,123.429 337.269,123.732 337.572 C 124.032 337.872,143.697 338.000,189.651 338.000 C 260.031 338.000,256.400 338.101,256.400 336.151 C 256.400 335.825,257.750 330.753,259.400 324.879 C 263.125 311.620,263.022 311.984,264.015 308.600 C 264.467 307.060,265.032 305.080,265.272 304.200 C 266.005 301.510,266.343 300.313,267.191 297.400 C 267.640 295.860,268.185 293.970,268.402 293.200 C 268.620 292.430,270.149 287.033,271.799 281.206 C 273.450 275.379,274.800 270.384,274.800 270.106 C 274.800 269.712,272.643 269.600,265.037 269.600 L 255.274 269.600 254.582 271.900 C 252.919 277.425,250.673 283.861,250.265 284.268 C 250.119 284.414,250.000 284.768,250.000 285.055 C 250.000 286.151,245.006 296.615,242.552 300.660 C 235.888 311.647,228.112 318.502,219.754 320.756 C 217.625 321.330,191.844 321.356,188.573 320.787 C 178.191 318.982,176.195 314.472,179.815 301.000 C 180.169 299.680,180.910 296.890,181.460 294.800 C 182.011 292.710,182.796 289.740,183.204 288.200 C 183.613 286.660,184.487 283.330,185.145 280.800 C 186.680 274.898,188.075 269.581,189.341 264.800 C 189.894 262.710,190.795 259.290,191.342 257.200 C 191.890 255.110,192.904 251.240,193.595 248.600 C 194.286 245.960,195.305 242.090,195.859 240.000 C 197.191 234.970,198.603 229.585,200.000 224.200 C 200.628 221.780,201.605 218.045,202.171 215.900 C 204.774 206.035,206.230 200.479,208.382 192.200 C 211.790 179.086,214.376 175.703,222.432 173.823 C 225.469 173.115,224.977 171.672,227.612 189.000 C 232.161 218.912,230.628 222.566,212.600 224.783 C 204.582 225.768,205.597 225.117,204.466 230.000 C 203.836 232.719,203.646 233.481,202.581 237.551 C 202.042 239.614,201.600 241.460,201.600 241.653 C 201.600 241.853,218.222 241.960,240.082 241.902 L 278.564 241.800 279.297 239.000 C 279.700 237.460,280.579 234.130,281.249 231.600 C 281.920 229.070,282.498 226.741,282.534 226.425 C 282.613 225.733,281.461 225.424,276.439 224.791 C 264.095 223.235,258.639 217.848,256.395 205.000 C 255.693 200.983,254.815 195.733,254.388 193.000 C 254.147 191.460,253.788 189.210,253.591 188.000 C 253.393 186.790,253.044 184.585,252.816 183.100 C 252.587 181.615,252.213 179.185,251.984 177.700 C 251.756 176.215,251.403 174.010,251.200 172.800 C 250.997 171.590,250.644 169.385,250.416 167.900 C 250.187 166.415,249.813 163.985,249.584 162.500 C 249.356 161.015,249.003 158.810,248.800 157.600 C 248.597 156.390,248.244 154.185,248.016 152.700 C 247.787 151.215,247.413 148.785,247.184 147.300 C 246.956 145.815,246.600 143.610,246.393 142.400 C 245.998 140.092,244.861 132.800,242.807 119.400 C 242.132 115.000,241.219 109.150,240.778 106.400 C 240.337 103.650,239.794 100.230,239.572 98.800 C 239.350 97.370,239.003 95.210,238.800 94.000 C 238.597 92.790,238.248 90.584,238.025 89.098 C 237.079 82.814,236.713 80.499,236.395 78.800 C 236.210 77.810,235.856 75.560,235.609 73.800 C 234.167 63.544,233.565 60.885,232.632 60.634 C 231.691 60.382,206.527 60.403,205.600 60.657 M212.393 89.826 C 212.633 91.571,212.989 93.990,213.184 95.200 C 213.668 98.199,214.391 102.903,214.814 105.800 C 215.007 107.120,215.361 109.370,215.600 110.800 C 215.839 112.230,216.193 114.480,216.386 115.800 C 216.846 118.950,217.562 123.609,218.046 126.600 C 218.259 127.920,218.605 130.170,218.813 131.600 C 219.022 133.030,219.382 135.370,219.613 136.800 C 219.845 138.230,220.205 140.570,220.413 142.000 C 220.622 143.430,220.981 145.770,221.212 147.200 C 221.442 148.630,221.819 151.060,222.049 152.600 C 222.280 154.140,222.498 155.580,222.534 155.800 C 222.577 156.062,213.754 156.235,196.900 156.303 C 181.633 156.364,171.200 156.258,171.200 156.042 C 171.200 155.763,182.514 135.711,187.643 126.900 C 188.059 126.185,188.782 124.925,189.249 124.100 C 190.309 122.228,210.819 86.329,211.103 85.849 C 211.488 85.197,211.954 86.633,212.393 89.826 " stroke="none" fill="#fbfbfc" fill-rule="evenodd"></path><path id="path1" d="M178.500 0.273 C 176.465 0.360,174.800 0.603,174.800 0.815 C 174.800 1.027,173.551 1.200,172.024 1.200 C 170.497 1.200,169.136 1.380,169.000 1.600 C 168.864 1.820,167.784 2.000,166.600 2.000 C 165.416 2.000,164.336 2.180,164.200 2.400 C 164.064 2.620,163.063 2.800,161.976 2.800 C 160.889 2.800,160.000 2.980,160.000 3.200 C 160.000 3.420,159.291 3.600,158.424 3.600 C 157.557 3.600,156.736 3.780,156.600 4.000 C 156.464 4.220,155.553 4.400,154.576 4.400 C 153.599 4.400,152.800 4.580,152.800 4.800 C 152.800 5.020,152.080 5.200,151.200 5.200 C 150.320 5.200,149.600 5.380,149.600 5.600 C 149.600 5.820,148.981 6.000,148.224 6.000 C 147.467 6.000,146.736 6.180,146.600 6.400 C 146.464 6.620,145.823 6.800,145.176 6.800 C 144.529 6.800,144.000 6.980,144.000 7.200 C 144.000 7.420,143.370 7.600,142.600 7.600 C 141.830 7.600,141.200 7.780,141.200 8.000 C 141.200 8.220,140.660 8.400,140.000 8.400 C 139.340 8.400,138.800 8.580,138.800 8.800 C 138.800 9.020,138.260 9.200,137.600 9.200 C 136.940 9.200,136.400 9.356,136.400 9.546 C 136.400 9.736,135.563 10.006,134.540 10.146 C 133.518 10.286,132.483 10.543,132.240 10.717 C 131.998 10.891,131.080 11.263,130.200 11.543 C 128.523 12.077,127.074 12.652,125.905 13.247 C 125.523 13.441,124.938 13.600,124.605 13.600 C 124.272 13.600,124.000 13.780,124.000 14.000 C 124.000 14.220,123.561 14.400,123.024 14.400 C 122.487 14.400,121.936 14.580,121.800 14.800 C 121.664 15.020,121.203 15.200,120.776 15.200 C 120.349 15.200,120.000 15.380,120.000 15.600 C 120.000 15.820,119.640 16.000,119.200 16.000 C 118.760 16.000,118.400 16.180,118.400 16.400 C 118.400 16.620,118.040 16.800,117.600 16.800 C 117.160 16.800,116.800 16.980,116.800 17.200 C 116.800 17.420,116.350 17.600,115.800 17.600 C 115.250 17.600,114.800 17.780,114.800 18.000 C 114.800 18.220,114.566 18.400,114.280 18.400 C 113.544 18.400,111.607 19.341,111.603 19.700 C 111.601 19.865,111.240 20.000,110.800 20.000 C 110.360 20.000,110.000 20.180,110.000 20.400 C 110.000 20.620,109.640 20.800,109.200 20.800 C 108.760 20.800,108.400 20.980,108.400 21.200 C 108.400 21.420,108.055 21.600,107.633 21.600 C 107.212 21.600,106.807 21.735,106.733 21.900 C 106.660 22.065,105.745 22.633,104.700 23.163 C 103.655 23.692,102.800 24.277,102.800 24.463 C 102.800 24.648,102.440 24.800,102.000 24.800 C 101.560 24.800,101.200 24.980,101.200 25.200 C 101.200 25.420,100.840 25.600,100.400 25.600 C 99.960 25.600,99.600 25.780,99.600 26.000 C 99.600 26.220,99.330 26.400,99.000 26.400 C 98.670 26.400,98.400 26.560,98.400 26.757 C 98.400 26.953,97.932 27.231,97.360 27.374 C 96.487 27.593,94.324 28.874,93.600 29.601 C 93.490 29.711,92.905 30.056,92.300 30.368 C 91.695 30.680,91.200 31.085,91.200 31.268 C 91.200 31.450,90.880 31.600,90.488 31.600 C 90.097 31.600,89.517 31.960,89.200 32.400 C 88.883 32.840,88.343 33.200,88.000 33.200 C 87.657 33.200,87.117 33.560,86.800 34.000 C 86.483 34.440,86.020 34.800,85.771 34.800 C 85.522 34.800,84.754 35.340,84.063 36.000 C 83.372 36.660,82.575 37.200,82.292 37.200 C 82.009 37.200,81.517 37.560,81.200 38.000 C 80.883 38.440,80.428 38.800,80.190 38.800 C 79.951 38.800,79.046 39.434,78.178 40.208 C 77.310 40.983,76.109 42.056,75.509 42.593 C 74.909 43.130,73.903 43.836,73.273 44.162 C 72.643 44.488,71.231 45.620,70.136 46.677 C 69.041 47.735,67.527 49.043,66.772 49.584 C 66.017 50.125,64.230 51.793,62.800 53.291 C 60.199 56.016,58.934 57.286,52.590 63.544 C 50.726 65.384,49.200 67.028,49.200 67.199 C 49.200 67.369,48.199 68.564,46.975 69.854 C 45.751 71.144,44.485 72.699,44.160 73.309 C 43.835 73.919,43.130 74.909,42.593 75.509 C 42.056 76.109,40.983 77.310,40.208 78.178 C 39.434 79.046,38.800 79.951,38.800 80.190 C 38.800 80.428,38.440 80.883,38.000 81.200 C 37.560 81.517,37.200 82.009,37.200 82.292 C 37.200 82.575,36.660 83.372,36.000 84.063 C 35.340 84.754,34.800 85.522,34.800 85.771 C 34.800 86.020,34.440 86.483,34.000 86.800 C 33.560 87.117,33.200 87.657,33.200 88.000 C 33.200 88.343,32.840 88.883,32.400 89.200 C 31.960 89.517,31.600 90.097,31.600 90.488 C 31.600 90.880,31.450 91.200,31.268 91.200 C 31.085 91.200,30.680 91.695,30.368 92.300 C 30.056 92.905,29.711 93.490,29.601 93.600 C 29.058 94.141,27.695 96.383,26.990 97.895 C 26.556 98.828,26.065 99.593,25.900 99.595 C 25.735 99.598,25.600 99.960,25.600 100.400 C 25.600 100.840,25.420 101.200,25.200 101.200 C 24.980 101.200,24.800 101.478,24.800 101.817 C 24.800 102.156,24.440 102.820,24.000 103.292 C 23.560 103.764,23.200 104.387,23.200 104.675 C 23.200 104.964,23.020 105.200,22.800 105.200 C 22.580 105.200,22.400 105.560,22.400 106.000 C 22.400 106.440,22.220 106.800,22.000 106.800 C 21.780 106.800,21.600 107.160,21.600 107.600 C 21.600 108.040,21.420 108.400,21.200 108.400 C 20.980 108.400,20.800 108.760,20.800 109.200 C 20.800 109.640,20.620 110.000,20.400 110.000 C 20.180 110.000,20.000 110.360,20.000 110.800 C 20.000 111.240,19.865 111.601,19.700 111.603 C 19.341 111.607,18.400 113.544,18.400 114.280 C 18.400 114.566,18.220 114.800,18.000 114.800 C 17.780 114.800,17.600 115.149,17.600 115.576 C 17.600 116.003,17.420 116.464,17.200 116.600 C 16.980 116.736,16.800 117.197,16.800 117.624 C 16.800 118.051,16.620 118.400,16.400 118.400 C 16.180 118.400,16.000 118.760,16.000 119.200 C 16.000 119.640,15.820 120.000,15.600 120.000 C 15.380 120.000,15.200 120.349,15.200 120.776 C 15.200 121.203,15.020 121.664,14.800 121.800 C 14.580 121.936,14.400 122.487,14.400 123.024 C 14.400 123.561,14.220 124.000,14.000 124.000 C 13.780 124.000,13.600 124.272,13.600 124.605 C 13.600 124.938,13.441 125.523,13.247 125.905 C 12.044 128.270,10.355 133.027,10.125 134.700 C 9.997 135.635,9.736 136.400,9.546 136.400 C 9.356 136.400,9.200 136.940,9.200 137.600 C 9.200 138.260,9.020 138.800,8.800 138.800 C 8.580 138.800,8.400 139.340,8.400 140.000 C 8.400 140.660,8.220 141.200,8.000 141.200 C 7.780 141.200,7.600 141.830,7.600 142.600 C 7.600 143.370,7.420 144.000,7.200 144.000 C 6.980 144.000,6.800 144.630,6.800 145.400 C 6.800 146.170,6.620 146.800,6.400 146.800 C 6.180 146.800,6.000 147.430,6.000 148.200 C 6.000 148.970,5.820 149.600,5.600 149.600 C 5.380 149.600,5.200 150.320,5.200 151.200 C 5.200 152.080,5.020 152.800,4.800 152.800 C 4.580 152.800,4.400 153.700,4.400 154.800 C 4.400 155.900,4.220 156.800,4.000 156.800 C 3.780 156.800,3.600 157.520,3.600 158.400 C 3.600 159.280,3.420 160.000,3.200 160.000 C 2.980 160.000,2.800 160.889,2.800 161.976 C 2.800 163.063,2.620 164.064,2.400 164.200 C 2.180 164.336,2.000 165.517,2.000 166.824 C 2.000 168.141,1.822 169.200,1.600 169.200 C 1.372 169.200,1.200 170.389,1.200 171.967 C 1.200 173.824,1.036 174.788,0.700 174.900 C -0.032 175.144,-0.032 224.856,0.700 225.100 C 1.036 225.212,1.200 226.176,1.200 228.033 C 1.200 229.611,1.372 230.800,1.600 230.800 C 1.822 230.800,2.000 231.867,2.000 233.200 C 2.000 234.533,2.178 235.600,2.400 235.600 C 2.620 235.600,2.800 236.489,2.800 237.576 C 2.800 238.663,2.980 239.664,3.200 239.800 C 3.420 239.936,3.600 240.757,3.600 241.624 C 3.600 242.491,3.780 243.200,4.000 243.200 C 4.220 243.200,4.400 243.999,4.400 244.976 C 4.400 245.953,4.580 246.864,4.800 247.000 C 5.020 247.136,5.200 247.856,5.200 248.600 C 5.200 249.344,5.380 250.064,5.600 250.200 C 5.820 250.336,6.000 250.977,6.000 251.624 C 6.000 252.271,6.180 252.800,6.400 252.800 C 6.620 252.800,6.800 253.520,6.800 254.400 C 6.800 255.280,6.980 256.000,7.200 256.000 C 7.420 256.000,7.600 256.540,7.600 257.200 C 7.600 257.860,7.780 258.400,8.000 258.400 C 8.220 258.400,8.400 259.030,8.400 259.800 C 8.400 260.570,8.580 261.200,8.800 261.200 C 9.020 261.200,9.200 261.740,9.200 262.400 C 9.200 263.060,9.356 263.600,9.546 263.600 C 9.736 263.600,10.002 264.406,10.137 265.391 C 10.272 266.376,10.545 267.501,10.744 267.891 C 11.633 269.630,13.600 274.839,13.600 275.453 C 13.600 275.754,13.780 276.000,14.000 276.000 C 14.220 276.000,14.400 276.360,14.400 276.800 C 14.400 277.240,14.580 277.600,14.800 277.600 C 15.020 277.600,15.200 278.039,15.200 278.576 C 15.200 279.113,15.380 279.664,15.600 279.800 C 15.820 279.936,16.000 280.397,16.000 280.824 C 16.000 281.251,16.180 281.600,16.400 281.600 C 16.620 281.600,16.800 281.960,16.800 282.400 C 16.800 282.840,16.980 283.200,17.200 283.200 C 17.420 283.200,17.600 283.560,17.600 284.000 C 17.600 284.440,17.780 284.800,18.000 284.800 C 18.220 284.800,18.400 285.250,18.400 285.800 C 18.400 286.350,18.580 286.800,18.800 286.800 C 19.020 286.800,19.200 287.160,19.200 287.600 C 19.200 288.040,19.380 288.400,19.600 288.400 C 19.820 288.400,20.000 288.760,20.000 289.200 C 20.000 289.640,20.180 290.000,20.400 290.000 C 20.620 290.000,20.800 290.360,20.800 290.800 C 20.800 291.240,20.980 291.600,21.200 291.600 C 21.420 291.600,21.600 291.960,21.600 292.400 C 21.600 292.840,21.780 293.200,22.000 293.200 C 22.220 293.200,22.400 293.436,22.400 293.725 C 22.400 294.013,22.760 294.636,23.200 295.108 C 23.640 295.580,24.000 296.244,24.000 296.583 C 24.000 296.922,24.180 297.200,24.400 297.200 C 24.620 297.200,24.800 297.560,24.800 298.000 C 24.800 298.440,24.980 298.800,25.200 298.800 C 25.420 298.800,25.600 299.120,25.600 299.512 C 25.600 299.903,25.960 300.483,26.400 300.800 C 26.840 301.117,27.200 301.672,27.200 302.032 C 27.200 302.393,27.605 303.298,28.100 304.044 C 28.595 304.790,29.254 305.892,29.564 306.493 C 29.874 307.095,30.459 307.942,30.864 308.377 C 31.269 308.811,31.600 309.404,31.600 309.695 C 31.600 309.986,31.960 310.483,32.400 310.800 C 32.840 311.117,33.200 311.657,33.200 312.000 C 33.200 312.343,33.560 312.883,34.000 313.200 C 34.440 313.517,34.800 313.962,34.801 314.188 C 34.801 314.415,35.341 315.230,36.000 316.000 C 36.659 316.770,37.199 317.585,37.199 317.812 C 37.200 318.038,37.560 318.483,38.000 318.800 C 38.440 319.117,38.800 319.580,38.800 319.829 C 38.800 320.078,39.340 320.846,40.000 321.537 C 40.660 322.228,41.200 322.910,41.200 323.053 C 41.200 323.196,41.732 323.822,42.383 324.444 C 43.034 325.066,43.834 326.092,44.161 326.724 C 44.487 327.356,45.665 328.802,46.777 329.938 C 47.890 331.074,48.800 332.161,48.800 332.352 C 48.800 332.544,50.774 334.658,53.186 337.050 C 55.598 339.443,58.139 341.964,58.833 342.652 C 59.528 343.341,61.398 345.247,62.989 346.887 C 64.581 348.528,66.577 350.394,67.426 351.035 C 68.275 351.676,69.774 352.965,70.757 353.900 C 71.739 354.835,72.668 355.600,72.821 355.600 C 72.974 355.600,73.887 356.320,74.849 357.200 C 75.812 358.080,76.736 358.800,76.903 358.800 C 77.071 358.800,77.772 359.340,78.463 360.000 C 79.154 360.660,79.922 361.200,80.171 361.200 C 80.420 361.200,80.883 361.560,81.200 362.000 C 81.517 362.440,81.962 362.800,82.188 362.801 C 82.415 362.801,83.230 363.341,84.000 364.000 C 84.770 364.659,85.585 365.199,85.812 365.199 C 86.038 365.200,86.483 365.560,86.800 366.000 C 87.117 366.440,87.657 366.800,88.000 366.800 C 88.343 366.800,88.883 367.160,89.200 367.600 C 89.517 368.040,90.057 368.400,90.400 368.400 C 90.743 368.400,91.283 368.760,91.600 369.200 C 91.917 369.640,92.497 370.000,92.888 370.000 C 93.280 370.000,93.600 370.180,93.600 370.400 C 93.600 370.620,93.836 370.800,94.125 370.800 C 94.413 370.800,94.998 371.115,95.425 371.500 C 95.851 371.885,96.740 372.470,97.400 372.799 C 98.060 373.129,98.690 373.509,98.800 373.644 C 99.175 374.102,101.558 375.200,102.180 375.200 C 102.521 375.200,102.800 375.380,102.800 375.600 C 102.800 375.820,103.160 376.000,103.600 376.000 C 104.040 376.000,104.400 376.180,104.400 376.400 C 104.400 376.620,104.678 376.800,105.017 376.800 C 105.356 376.800,106.020 377.160,106.492 377.600 C 106.964 378.040,107.587 378.400,107.875 378.400 C 108.164 378.400,108.400 378.580,108.400 378.800 C 108.400 379.020,108.760 379.200,109.200 379.200 C 109.640 379.200,110.000 379.380,110.000 379.600 C 110.000 379.820,110.360 380.000,110.800 380.000 C 111.240 380.000,111.600 380.180,111.600 380.400 C 111.600 380.620,111.960 380.800,112.400 380.800 C 112.840 380.800,113.200 380.980,113.200 381.200 C 113.200 381.420,113.650 381.600,114.200 381.600 C 114.750 381.600,115.200 381.780,115.200 382.000 C 115.200 382.220,115.560 382.400,116.000 382.400 C 116.440 382.400,116.800 382.580,116.800 382.800 C 116.800 383.020,117.160 383.200,117.600 383.200 C 118.040 383.200,118.400 383.380,118.400 383.600 C 118.400 383.820,118.749 384.000,119.176 384.000 C 119.603 384.000,120.064 384.180,120.200 384.400 C 120.336 384.620,120.887 384.800,121.424 384.800 C 121.961 384.800,122.400 384.980,122.400 385.200 C 122.400 385.420,122.760 385.600,123.200 385.600 C 123.640 385.600,124.000 385.780,124.000 386.000 C 124.000 386.220,124.540 386.400,125.200 386.400 C 125.860 386.400,126.400 386.580,126.400 386.800 C 126.400 387.020,126.760 387.200,127.200 387.200 C 127.640 387.200,128.000 387.380,128.000 387.600 C 128.000 387.820,128.362 388.000,128.805 388.000 C 129.248 388.000,129.968 388.180,130.405 388.400 C 130.842 388.620,131.558 388.980,131.995 389.200 C 132.432 389.420,133.064 389.600,133.400 389.600 C 133.736 389.600,134.323 389.774,134.705 389.987 C 136.028 390.725,139.234 391.600,140.614 391.600 C 141.376 391.600,142.000 391.780,142.000 392.000 C 142.000 392.220,142.439 392.400,142.976 392.400 C 143.513 392.400,144.064 392.580,144.200 392.800 C 144.336 393.020,145.067 393.200,145.824 393.200 C 146.581 393.200,147.200 393.380,147.200 393.600 C 147.200 393.820,147.729 394.000,148.376 394.000 C 149.023 394.000,149.664 394.180,149.800 394.400 C 149.936 394.620,150.656 394.800,151.400 394.800 C 152.144 394.800,152.864 394.980,153.000 395.200 C 153.136 395.420,154.047 395.600,155.024 395.600 C 156.001 395.600,156.800 395.780,156.800 396.000 C 156.800 396.220,157.599 396.400,158.576 396.400 C 159.553 396.400,160.464 396.580,160.600 396.800 C 160.736 397.020,161.647 397.200,162.624 397.200 C 163.601 397.200,164.400 397.380,164.400 397.600 C 164.400 397.822,165.467 398.000,166.800 398.000 C 168.133 398.000,169.200 398.178,169.200 398.400 C 169.200 398.628,170.389 398.800,171.967 398.800 C 173.824 398.800,174.788 398.964,174.900 399.300 C 175.144 400.032,224.856 400.032,225.100 399.300 C 225.212 398.964,226.176 398.800,228.033 398.800 C 229.611 398.800,230.800 398.628,230.800 398.400 C 230.800 398.178,231.867 398.000,233.200 398.000 C 234.533 398.000,235.600 397.822,235.600 397.600 C 235.600 397.380,236.489 397.200,237.576 397.200 C 238.663 397.200,239.664 397.020,239.800 396.800 C 239.936 396.580,240.757 396.400,241.624 396.400 C 242.491 396.400,243.200 396.220,243.200 396.000 C 243.200 395.780,243.999 395.600,244.976 395.600 C 245.953 395.600,246.864 395.420,247.000 395.200 C 247.136 394.980,247.856 394.800,248.600 394.800 C 249.344 394.800,250.064 394.620,250.200 394.400 C 250.336 394.180,250.977 394.000,251.624 394.000 C 252.271 394.000,252.800 393.820,252.800 393.600 C 252.800 393.380,253.520 393.200,254.400 393.200 C 255.280 393.200,256.000 393.020,256.000 392.800 C 256.000 392.580,256.540 392.400,257.200 392.400 C 257.860 392.400,258.400 392.220,258.400 392.000 C 258.400 391.780,258.936 391.600,259.592 391.600 C 260.776 391.600,266.368 389.938,267.695 389.191 C 268.077 388.976,268.752 388.800,269.195 388.800 C 269.638 388.800,270.000 388.620,270.000 388.400 C 270.000 388.180,270.439 388.000,270.976 388.000 C 271.513 388.000,272.064 387.820,272.200 387.600 C 272.336 387.380,272.797 387.200,273.224 387.200 C 273.651 387.200,274.000 387.020,274.000 386.800 C 274.000 386.580,274.450 386.400,275.000 386.400 C 275.550 386.400,276.000 386.220,276.000 386.000 C 276.000 385.780,276.360 385.600,276.800 385.600 C 277.240 385.600,277.600 385.420,277.600 385.200 C 277.600 384.980,278.140 384.800,278.800 384.800 C 279.460 384.800,280.000 384.620,280.000 384.400 C 280.000 384.180,280.360 384.000,280.800 384.000 C 281.240 384.000,281.600 383.820,281.600 383.600 C 281.600 383.380,281.960 383.200,282.400 383.200 C 282.840 383.200,283.200 383.020,283.200 382.800 C 283.200 382.580,283.549 382.400,283.976 382.400 C 284.403 382.400,284.864 382.220,285.000 382.000 C 285.136 381.780,285.597 381.600,286.024 381.600 C 286.451 381.600,286.800 381.420,286.800 381.200 C 286.800 380.980,287.160 380.800,287.600 380.800 C 288.040 380.800,288.400 380.620,288.400 380.400 C 288.400 380.180,288.760 380.000,289.200 380.000 C 289.640 380.000,290.000 379.820,290.000 379.600 C 290.000 379.380,290.360 379.200,290.800 379.200 C 291.240 379.200,291.600 379.020,291.600 378.800 C 291.600 378.580,291.960 378.400,292.400 378.400 C 292.840 378.400,293.200 378.220,293.200 378.000 C 293.200 377.780,293.436 377.600,293.725 377.600 C 294.013 377.600,294.636 377.240,295.108 376.800 C 295.580 376.360,296.244 376.000,296.583 376.000 C 296.922 376.000,297.200 375.820,297.200 375.600 C 297.200 375.380,297.479 375.200,297.820 375.200 C 298.442 375.200,300.825 374.102,301.200 373.644 C 301.310 373.509,301.940 373.135,302.600 372.812 C 303.260 372.489,304.552 371.724,305.472 371.112 C 306.392 370.501,307.297 370.000,307.484 370.000 C 307.671 370.000,308.083 369.640,308.400 369.200 C 308.717 368.760,309.257 368.400,309.600 368.400 C 309.943 368.400,310.483 368.040,310.800 367.600 C 311.117 367.160,311.657 366.800,312.000 366.800 C 312.343 366.800,312.883 366.440,313.200 366.000 C 313.517 365.560,314.057 365.200,314.400 365.200 C 314.743 365.200,315.283 364.840,315.600 364.400 C 315.917 363.960,316.380 363.600,316.629 363.600 C 316.878 363.600,317.646 363.060,318.337 362.400 C 319.028 361.740,319.748 361.200,319.937 361.200 C 320.126 361.200,320.846 360.660,321.537 360.000 C 322.228 359.340,322.937 358.800,323.113 358.800 C 323.289 358.800,324.101 358.170,324.918 357.400 C 325.734 356.630,326.563 356.000,326.760 356.000 C 326.958 356.000,327.995 355.143,329.065 354.095 C 330.135 353.047,331.638 351.745,332.405 351.201 C 333.172 350.658,335.561 348.410,337.713 346.207 C 342.418 341.389,341.389 342.418,346.207 337.713 C 348.410 335.561,350.658 333.170,351.201 332.400 C 351.745 331.630,352.957 330.230,353.895 329.289 C 354.833 328.349,355.600 327.426,355.600 327.240 C 355.600 327.054,356.320 326.113,357.200 325.151 C 358.080 324.188,358.800 323.264,358.800 323.097 C 358.800 322.929,359.340 322.228,360.000 321.537 C 360.660 320.846,361.200 320.078,361.200 319.829 C 361.200 319.580,361.560 319.117,362.000 318.800 C 362.440 318.483,362.800 318.020,362.800 317.771 C 362.800 317.522,363.340 316.754,364.000 316.063 C 364.660 315.372,365.200 314.575,365.200 314.292 C 365.200 314.009,365.560 313.517,366.000 313.200 C 366.440 312.883,366.800 312.343,366.800 312.000 C 366.800 311.657,367.160 311.117,367.600 310.800 C 368.040 310.483,368.400 309.969,368.400 309.659 C 368.400 309.348,368.729 308.803,369.130 308.447 C 369.532 308.091,370.116 307.215,370.428 306.500 C 370.740 305.785,371.103 305.200,371.235 305.200 C 371.366 305.200,371.905 304.345,372.432 303.300 C 372.958 302.255,373.502 301.310,373.639 301.200 C 374.099 300.832,375.200 298.447,375.200 297.820 C 375.200 297.479,375.380 297.200,375.600 297.200 C 375.820 297.200,376.000 296.922,376.000 296.583 C 376.000 296.244,376.360 295.580,376.800 295.108 C 377.240 294.636,377.600 294.013,377.600 293.725 C 377.600 293.436,377.780 293.200,378.000 293.200 C 378.220 293.200,378.400 292.840,378.400 292.400 C 378.400 291.960,378.580 291.600,378.800 291.600 C 379.020 291.600,379.200 291.240,379.200 290.800 C 379.200 290.360,379.380 290.000,379.600 290.000 C 379.820 290.000,380.000 289.640,380.000 289.200 C 380.000 288.760,380.180 288.400,380.400 288.400 C 380.620 288.400,380.800 288.040,380.800 287.600 C 380.800 287.160,380.980 286.800,381.200 286.800 C 381.420 286.800,381.600 286.350,381.600 285.800 C 381.600 285.250,381.780 284.800,382.000 284.800 C 382.220 284.800,382.400 284.440,382.400 284.000 C 382.400 283.560,382.580 283.200,382.800 283.200 C 383.020 283.200,383.200 282.840,383.200 282.400 C 383.200 281.960,383.380 281.600,383.600 281.600 C 383.820 281.600,384.000 281.240,384.000 280.800 C 384.000 280.360,384.180 280.000,384.400 280.000 C 384.620 280.000,384.800 279.460,384.800 278.800 C 384.800 278.140,384.980 277.600,385.200 277.600 C 385.420 277.600,385.600 277.240,385.600 276.800 C 385.600 276.360,385.780 276.000,386.000 276.000 C 386.220 276.000,386.400 275.728,386.400 275.395 C 386.400 275.062,386.580 274.432,386.800 273.995 C 387.020 273.558,387.380 272.842,387.600 272.405 C 387.820 271.968,388.000 271.248,388.000 270.805 C 388.000 270.362,388.180 270.000,388.400 270.000 C 388.620 270.000,388.800 269.638,388.800 269.195 C 388.800 268.752,388.976 268.077,389.191 267.695 C 389.938 266.368,391.600 260.776,391.600 259.592 C 391.600 258.936,391.780 258.400,392.000 258.400 C 392.220 258.400,392.400 257.860,392.400 257.200 C 392.400 256.540,392.580 256.000,392.800 256.000 C 393.020 256.000,393.200 255.280,393.200 254.400 C 393.200 253.520,393.380 252.800,393.600 252.800 C 393.820 252.800,394.000 252.271,394.000 251.624 C 394.000 250.977,394.180 250.336,394.400 250.200 C 394.620 250.064,394.800 249.344,394.800 248.600 C 394.800 247.856,394.980 247.136,395.200 247.000 C 395.420 246.864,395.600 245.953,395.600 244.976 C 395.600 243.999,395.780 243.200,396.000 243.200 C 396.220 243.200,396.400 242.491,396.400 241.624 C 396.400 240.757,396.580 239.936,396.800 239.800 C 397.020 239.664,397.200 238.663,397.200 237.576 C 397.200 236.489,397.380 235.600,397.600 235.600 C 397.822 235.600,398.000 234.533,398.000 233.200 C 398.000 231.867,398.178 230.800,398.400 230.800 C 398.628 230.800,398.800 229.611,398.800 228.033 C 398.800 226.176,398.964 225.212,399.300 225.100 C 399.693 224.969,399.800 219.591,399.800 200.000 C 399.800 180.409,399.693 175.031,399.300 174.900 C 398.964 174.788,398.800 173.824,398.800 171.967 C 398.800 170.389,398.628 169.200,398.400 169.200 C 398.178 169.200,398.000 168.133,398.000 166.800 C 398.000 165.467,397.822 164.400,397.600 164.400 C 397.380 164.400,397.200 163.511,397.200 162.424 C 397.200 161.337,397.020 160.336,396.800 160.200 C 396.580 160.064,396.400 159.243,396.400 158.376 C 396.400 157.509,396.220 156.800,396.000 156.800 C 395.780 156.800,395.600 156.001,395.600 155.024 C 395.600 154.047,395.420 153.136,395.200 153.000 C 394.980 152.864,394.800 152.144,394.800 151.400 C 394.800 150.656,394.620 149.936,394.400 149.800 C 394.180 149.664,394.000 149.023,394.000 148.376 C 394.000 147.729,393.820 147.200,393.600 147.200 C 393.380 147.200,393.200 146.581,393.200 145.824 C 393.200 145.067,393.020 144.336,392.800 144.200 C 392.580 144.064,392.400 143.513,392.400 142.976 C 392.400 142.439,392.220 142.000,392.000 142.000 C 391.780 142.000,391.600 141.374,391.600 140.608 C 391.600 138.904,389.765 133.080,388.353 130.305 C 388.159 129.923,388.000 129.372,388.000 129.081 C 388.000 128.789,387.640 127.805,387.200 126.894 C 386.760 125.984,386.400 124.960,386.400 124.619 C 386.400 124.279,386.220 124.000,386.000 124.000 C 385.780 124.000,385.600 123.640,385.600 123.200 C 385.600 122.760,385.420 122.400,385.200 122.400 C 384.980 122.400,384.800 121.860,384.800 121.200 C 384.800 120.540,384.620 120.000,384.400 120.000 C 384.180 120.000,384.000 119.640,384.000 119.200 C 384.000 118.760,383.820 118.400,383.600 118.400 C 383.380 118.400,383.200 118.040,383.200 117.600 C 383.200 117.160,383.020 116.800,382.800 116.800 C 382.580 116.800,382.400 116.440,382.400 116.000 C 382.400 115.560,382.220 115.200,382.000 115.200 C 381.780 115.200,381.600 114.750,381.600 114.200 C 381.600 113.650,381.420 113.200,381.200 113.200 C 380.980 113.200,380.800 112.840,380.800 112.400 C 380.800 111.960,380.620 111.600,380.400 111.600 C 380.180 111.600,380.000 111.240,380.000 110.800 C 380.000 110.360,379.820 110.000,379.600 110.000 C 379.380 110.000,379.200 109.640,379.200 109.200 C 379.200 108.760,379.020 108.400,378.800 108.400 C 378.580 108.400,378.400 108.040,378.400 107.600 C 378.400 107.160,378.220 106.800,378.000 106.800 C 377.780 106.800,377.600 106.564,377.600 106.275 C 377.600 105.987,377.240 105.364,376.800 104.892 C 376.360 104.420,376.000 103.756,376.000 103.417 C 376.000 103.078,375.820 102.800,375.600 102.800 C 375.380 102.800,375.200 102.536,375.200 102.214 C 375.200 101.484,373.942 98.800,373.601 98.800 C 373.462 98.800,373.102 98.170,372.800 97.400 C 372.498 96.630,372.104 96.000,371.925 96.000 C 371.746 96.000,371.600 95.764,371.600 95.475 C 371.600 95.187,371.240 94.564,370.800 94.092 C 370.360 93.620,370.000 92.996,370.000 92.705 C 370.000 92.414,369.640 91.917,369.200 91.600 C 368.760 91.283,368.400 90.743,368.400 90.400 C 368.400 90.057,368.040 89.517,367.600 89.200 C 367.160 88.883,366.800 88.343,366.800 88.000 C 366.800 87.657,366.440 87.117,366.000 86.800 C 365.560 86.483,365.200 85.943,365.200 85.600 C 365.200 85.257,364.840 84.717,364.400 84.400 C 363.960 84.083,363.600 83.593,363.600 83.312 C 363.600 83.030,363.420 82.800,363.200 82.800 C 362.980 82.800,362.800 82.570,362.800 82.288 C 362.800 82.007,362.440 81.517,362.000 81.200 C 361.560 80.883,361.200 80.420,361.200 80.171 C 361.200 79.922,360.660 79.154,360.000 78.463 C 359.340 77.772,358.800 77.071,358.800 76.903 C 358.800 76.736,358.080 75.812,357.200 74.849 C 356.320 73.887,355.600 72.946,355.600 72.760 C 355.600 72.574,354.833 71.651,353.895 70.711 C 352.957 69.770,351.745 68.370,351.202 67.600 C 350.660 66.830,348.772 64.805,347.008 63.101 C 343.094 59.320,342.602 58.828,337.701 53.793 C 335.555 51.590,333.170 49.341,332.400 48.795 C 331.630 48.250,330.289 47.114,329.419 46.271 C 328.550 45.427,327.329 44.474,326.707 44.152 C 326.084 43.830,325.066 43.034,324.444 42.383 C 323.822 41.732,323.196 41.200,323.053 41.200 C 322.910 41.200,322.228 40.660,321.537 40.000 C 320.846 39.340,320.126 38.800,319.937 38.800 C 319.748 38.800,319.028 38.260,318.337 37.600 C 317.646 36.940,316.878 36.400,316.629 36.400 C 316.380 36.400,315.917 36.040,315.600 35.600 C 315.283 35.160,314.743 34.800,314.400 34.800 C 314.057 34.800,313.517 34.440,313.200 34.000 C 312.883 33.560,312.343 33.200,312.000 33.200 C 311.657 33.200,311.117 32.840,310.800 32.400 C 310.483 31.960,309.986 31.600,309.695 31.600 C 309.404 31.600,308.790 31.249,308.329 30.820 C 307.869 30.391,306.911 29.764,306.201 29.427 C 305.491 29.090,304.693 28.553,304.427 28.233 C 304.162 27.913,303.417 27.536,302.772 27.394 C 302.128 27.252,301.600 26.971,301.600 26.768 C 301.600 26.566,301.330 26.400,301.000 26.400 C 300.670 26.400,300.400 26.220,300.400 26.000 C 300.400 25.780,300.040 25.600,299.600 25.600 C 299.160 25.600,298.800 25.420,298.800 25.200 C 298.800 24.980,298.440 24.800,298.000 24.800 C 297.560 24.800,297.200 24.620,297.200 24.400 C 297.200 24.180,296.922 24.000,296.583 24.000 C 296.244 24.000,295.580 23.640,295.108 23.200 C 294.636 22.760,294.013 22.400,293.725 22.400 C 293.436 22.400,293.200 22.220,293.200 22.000 C 293.200 21.780,292.840 21.600,292.400 21.600 C 291.960 21.600,291.600 21.420,291.600 21.200 C 291.600 20.980,291.240 20.800,290.800 20.800 C 290.360 20.800,290.000 20.620,290.000 20.400 C 290.000 20.180,289.640 20.000,289.200 20.000 C 288.760 20.000,288.400 19.864,288.400 19.698 C 288.400 19.531,287.815 19.160,287.100 18.871 C 286.385 18.583,285.487 18.179,285.105 17.974 C 284.723 17.768,284.138 17.600,283.805 17.600 C 283.472 17.600,283.200 17.420,283.200 17.200 C 283.200 16.980,282.840 16.800,282.400 16.800 C 281.960 16.800,281.600 16.620,281.600 16.400 C 281.600 16.180,281.251 16.000,280.824 16.000 C 280.397 16.000,279.936 15.820,279.800 15.600 C 279.664 15.380,279.113 15.200,278.576 15.200 C 278.039 15.200,277.600 15.020,277.600 14.800 C 277.600 14.580,277.240 14.400,276.800 14.400 C 276.360 14.400,276.000 14.220,276.000 14.000 C 276.000 13.780,275.721 13.600,275.381 13.600 C 275.040 13.600,274.016 13.240,273.106 12.800 C 272.195 12.360,271.211 12.000,270.919 12.000 C 270.628 12.000,269.987 11.792,269.495 11.538 C 267.494 10.504,267.110 10.372,265.391 10.137 C 264.406 10.002,263.600 9.736,263.600 9.546 C 263.600 9.356,263.060 9.200,262.400 9.200 C 261.740 9.200,261.200 9.020,261.200 8.800 C 261.200 8.580,260.671 8.400,260.024 8.400 C 259.377 8.400,258.736 8.220,258.600 8.000 C 258.464 7.780,257.823 7.600,257.176 7.600 C 256.529 7.600,256.000 7.420,256.000 7.200 C 256.000 6.980,255.280 6.800,254.400 6.800 C 253.520 6.800,252.800 6.620,252.800 6.400 C 252.800 6.180,252.271 6.000,251.624 6.000 C 250.977 6.000,250.336 5.820,250.200 5.600 C 250.064 5.380,249.344 5.200,248.600 5.200 C 247.856 5.200,247.136 5.020,247.000 4.800 C 246.864 4.580,245.953 4.400,244.976 4.400 C 243.999 4.400,243.200 4.220,243.200 4.000 C 243.200 3.780,242.491 3.600,241.624 3.600 C 240.757 3.600,239.936 3.420,239.800 3.200 C 239.664 2.980,238.663 2.800,237.576 2.800 C 236.489 2.800,235.600 2.620,235.600 2.400 C 235.600 2.178,234.533 2.000,233.200 2.000 C 231.867 2.000,230.800 1.822,230.800 1.600 C 230.800 1.372,229.611 1.200,228.033 1.200 C 226.235 1.200,225.211 1.032,225.106 0.719 C 224.948 0.243,187.652 -0.114,178.500 0.273 M232.632 60.634 C 233.565 60.885,234.167 63.544,235.609 73.800 C 235.856 75.560,236.210 77.810,236.395 78.800 C 236.713 80.499,237.079 82.814,238.025 89.098 C 238.248 90.584,238.597 92.790,238.800 94.000 C 239.003 95.210,239.350 97.370,239.572 98.800 C 239.794 100.230,240.337 103.650,240.778 106.400 C 241.219 109.150,242.132 115.000,242.807 119.400 C 244.861 132.800,245.998 140.092,246.393 142.400 C 246.600 143.610,246.956 145.815,247.184 147.300 C 247.413 148.785,247.787 151.215,248.016 152.700 C 248.244 154.185,248.597 156.390,248.800 157.600 C 249.003 158.810,249.356 161.015,249.584 162.500 C 249.813 163.985,250.187 166.415,250.416 167.900 C 250.644 169.385,250.997 171.590,251.200 172.800 C 251.403 174.010,251.756 176.215,251.984 177.700 C 252.213 179.185,252.587 181.615,252.816 183.100 C 253.044 184.585,253.393 186.790,253.591 188.000 C 253.788 189.210,254.147 191.460,254.388 193.000 C 254.815 195.733,255.693 200.983,256.395 205.000 C 258.639 217.848,264.095 223.235,276.439 224.791 C 281.461 225.424,282.613 225.733,282.534 226.425 C 282.498 226.741,281.920 229.070,281.249 231.600 C 280.579 234.130,279.700 237.460,279.297 239.000 L 278.564 241.800 240.082 241.902 C 218.222 241.960,201.600 241.853,201.600 241.653 C 201.600 241.460,202.042 239.614,202.581 237.551 C 203.646 233.481,203.836 232.719,204.466 230.000 C 205.450 225.751,205.508 225.659,207.324 225.433 C 208.246 225.319,210.620 225.026,212.600 224.783 C 230.628 222.566,232.161 218.912,227.612 189.000 C 224.977 171.672,225.469 173.115,222.432 173.823 C 214.376 175.703,211.790 179.086,208.382 192.200 C 206.230 200.479,204.774 206.035,202.171 215.900 C 201.605 218.045,200.628 221.780,200.000 224.200 C 198.603 229.585,197.191 234.970,195.859 240.000 C 195.305 242.090,194.286 245.960,193.595 248.600 C 192.904 251.240,191.890 255.110,191.342 257.200 C 190.795 259.290,189.894 262.710,189.341 264.800 C 188.075 269.581,186.680 274.898,185.145 280.800 C 184.487 283.330,183.613 286.660,183.204 288.200 C 182.796 289.740,182.011 292.710,181.460 294.800 C 180.910 296.890,180.169 299.680,179.815 301.000 C 176.195 314.472,178.191 318.982,188.573 320.787 C 191.844 321.356,217.625 321.330,219.754 320.756 C 228.112 318.502,235.888 311.647,242.552 300.660 C 245.006 296.615,250.000 286.151,250.000 285.055 C 250.000 284.768,250.119 284.414,250.265 284.268 C 250.673 283.861,252.919 277.425,254.582 271.900 L 255.274 269.600 265.037 269.600 C 272.643 269.600,274.800 269.712,274.800 270.106 C 274.800 270.384,273.450 275.379,271.799 281.206 C 270.149 287.033,268.620 292.430,268.402 293.200 C 268.185 293.970,267.640 295.860,267.191 297.400 C 266.343 300.313,266.005 301.510,265.272 304.200 C 265.032 305.080,264.467 307.060,264.015 308.600 C 263.022 311.984,263.125 311.620,259.400 324.879 C 257.750 330.753,256.400 335.825,256.400 336.151 C 256.400 338.101,260.031 338.000,189.651 338.000 C 143.697 338.000,124.032 337.872,123.732 337.572 C 123.429 337.269,123.813 335.150,125.057 330.272 C 127.591 320.332,126.989 321.201,131.349 321.195 C 139.221 321.185,143.731 318.703,146.669 312.765 C 148.142 309.791,148.056 310.067,151.340 297.600 C 151.890 295.510,152.638 292.720,153.002 291.400 C 153.365 290.080,153.994 287.740,154.399 286.200 C 154.804 284.660,155.522 281.960,155.995 280.200 C 156.469 278.440,157.910 273.040,159.197 268.200 C 160.485 263.360,161.927 257.960,162.403 256.200 C 162.878 254.440,163.717 251.290,164.267 249.200 C 164.817 247.110,165.420 244.860,165.606 244.200 C 165.955 242.964,167.021 238.987,168.368 233.900 C 169.718 228.799,171.566 221.891,172.409 218.800 C 173.603 214.415,176.284 204.282,178.070 197.400 C 182.816 179.110,179.317 173.303,163.495 173.213 L 161.190 173.200 159.751 175.449 C 157.991 178.202,157.363 179.387,149.281 195.231 C 136.474 220.334,137.381 223.683,157.400 225.219 C 164.636 225.774,164.045 225.421,163.214 228.693 C 162.837 230.182,162.123 233.110,161.628 235.200 C 161.134 237.290,160.558 239.675,160.349 240.500 L 159.969 242.000 126.785 242.000 C 93.766 242.000,93.600 241.996,93.600 241.193 C 93.600 240.749,93.975 238.994,94.434 237.293 C 94.892 235.592,95.688 232.549,96.202 230.532 C 97.413 225.786,97.670 225.351,99.466 225.014 C 105.390 223.903,112.349 219.175,117.257 212.928 C 119.216 210.435,127.200 197.649,127.200 197.006 C 127.200 196.956,128.125 195.314,129.255 193.357 C 131.842 188.880,132.590 187.574,133.643 185.700 C 134.106 184.875,134.620 184.020,134.785 183.800 C 134.950 183.580,135.626 182.410,136.287 181.200 C 136.948 179.990,141.044 172.790,145.389 165.200 C 149.734 157.610,153.746 150.590,154.306 149.600 C 154.865 148.610,158.059 143.030,161.404 137.200 C 164.748 131.370,167.940 125.790,168.495 124.800 C 169.304 123.359,177.846 108.428,181.253 102.500 C 183.243 99.038,183.806 98.039,184.917 96.000 C 185.576 94.790,186.250 93.620,186.415 93.400 C 186.580 93.180,187.069 92.370,187.502 91.600 C 187.936 90.830,190.767 85.880,193.794 80.600 C 199.904 69.943,201.072 67.889,203.400 63.700 C 204.280 62.117,205.270 60.748,205.600 60.657 C 206.527 60.403,231.691 60.382,232.632 60.634 M211.103 85.849 C 210.819 86.329,190.309 122.228,189.249 124.100 C 188.782 124.925,188.059 126.185,187.643 126.900 C 182.514 135.711,171.200 155.763,171.200 156.042 C 171.200 156.258,181.633 156.364,196.900 156.303 C 213.754 156.235,222.577 156.062,222.534 155.800 C 222.498 155.580,222.280 154.140,222.049 152.600 C 221.819 151.060,221.442 148.630,221.212 147.200 C 220.981 145.770,220.622 143.430,220.413 142.000 C 220.205 140.570,219.845 138.230,219.613 136.800 C 219.382 135.370,219.022 133.030,218.813 131.600 C 218.605 130.170,218.259 127.920,218.046 126.600 C 217.562 123.609,216.846 118.950,216.386 115.800 C 216.193 114.480,215.839 112.230,215.600 110.800 C 215.361 109.370,215.007 107.120,214.814 105.800 C 214.391 102.903,213.668 98.199,213.184 95.200 C 212.989 93.990,212.633 91.571,212.393 89.826 C 211.954 86.633,211.488 85.197,211.103 85.849 " stroke="none" fill="#44bcfc" fill-rule="evenodd"></path></g></svg>